<svg width="96" height="96" viewBox="0 0 300 300" fill="none" xmlns="http://www.w3.org/2000/svg">
<rect width="96" height="96" fill="#333"/>
<line y1="-0.5" x2="309.89" y2="-0.5" transform="matrix(-0.621019 0.783795 -0.789619 -0.613597 256.448 152.703)" stroke="#305170"/>
<line y1="-0.5" x2="315.094" y2="-0.5" transform="matrix(-0.646272 0.763107 -0.769254 -0.638944 204.357 0.620972)" stroke="#568BBA"/>
<g filter="url(#filter0_f_0_1)">
<path d="M92.215 57.1818C91.4821 50.9924 88.5095 46.1875 83.2974 42.767C78.0853 39.3466 71.6923 37.6364 64.1184 37.6364C58.5806 37.6364 53.7349 38.5322 49.5815 40.3239C45.4688 42.1155 42.252 44.5791 39.9309 47.7145C37.6506 50.8499 36.5105 54.4129 36.5105 58.4034C36.5105 61.7424 37.3045 64.6132 38.8926 67.0156C40.5214 69.3774 42.5981 71.3523 45.1227 72.9403C47.6473 74.4877 50.2941 75.7704 53.063 76.7883C55.832 77.7656 58.377 78.5597 60.698 79.1705L73.4025 82.5909C76.6601 83.446 80.2842 84.6269 84.2747 86.1335C88.3059 87.6401 92.1539 89.6965 95.8187 92.3026C99.5242 94.8679 102.578 98.1662 104.981 102.197C107.383 106.229 108.584 111.176 108.584 117.04C108.584 123.799 106.813 129.907 103.27 135.364C99.7685 140.82 94.6378 145.157 87.8784 148.374C81.1596 151.59 72.9953 153.199 63.3855 153.199C54.4271 153.199 46.67 151.753 40.1142 148.862C33.599 145.971 28.4683 141.94 24.7221 136.768C21.0166 131.597 18.9196 125.591 18.4309 118.75H34.0673C34.4745 123.473 36.0626 127.383 38.8315 130.477C41.6412 133.531 45.1838 135.812 49.4593 137.318C53.7756 138.784 58.4177 139.517 63.3855 139.517C69.1677 139.517 74.3594 138.58 78.9608 136.707C83.5621 134.794 87.2065 132.147 89.894 128.767C92.5815 125.347 93.9253 121.356 93.9253 116.795C93.9253 112.642 92.7647 109.262 90.4437 106.656C88.1227 104.05 85.0687 101.933 81.2818 100.304C77.4949 98.6752 73.4025 97.25 69.0048 96.0284L53.6128 91.6307C43.84 88.821 36.1033 84.8101 30.4025 79.598C24.7018 74.3859 21.8514 67.5653 21.8514 59.1364C21.8514 52.1326 23.7449 46.0246 27.5318 40.8125C31.3594 35.5597 36.4901 31.4877 42.9238 28.5966C49.3983 25.6648 56.626 24.1989 64.6071 24.1989C72.6696 24.1989 79.8362 25.6444 86.1071 28.5355C92.3779 31.3859 97.3457 35.295 101.01 40.2628C104.716 45.2306 106.671 50.8703 106.874 57.1818H92.215Z" fill="#305170"/>
<path d="M92.215 57.1818L91.222 57.2994L91.3265 58.1818H92.215V57.1818ZM83.2974 42.767L82.7488 43.6031L82.7488 43.6031L83.2974 42.767ZM49.5815 40.3239L49.1854 39.4056L49.1821 39.4071L49.5815 40.3239ZM39.9309 47.7145L39.1272 47.1195L39.1222 47.1263L39.9309 47.7145ZM38.8926 67.0156L38.0584 67.5671L38.0638 67.5753L38.0694 67.5834L38.8926 67.0156ZM45.1227 72.9403L44.5902 73.7869L44.6001 73.7929L45.1227 72.9403ZM53.063 76.7883L52.7179 77.727L52.7302 77.7313L53.063 76.7883ZM60.698 79.1705L60.958 78.2048L60.9525 78.2034L60.698 79.1705ZM73.4025 82.5909L73.1425 83.5565L73.1486 83.5581L73.4025 82.5909ZM84.2747 86.1335L83.9215 87.0691L83.9246 87.0702L84.2747 86.1335ZM95.8187 92.3026L95.2391 93.1176L95.2495 93.1247L95.8187 92.3026ZM104.981 102.197L105.84 101.685L105.84 101.685L104.981 102.197ZM103.27 135.364L102.432 134.819L102.429 134.824L103.27 135.364ZM87.8784 148.374L87.4487 147.471L87.4465 147.472L87.8784 148.374ZM40.1142 148.862L39.7086 149.776L39.7107 149.777L40.1142 148.862ZM24.7221 136.768L23.9092 137.351L23.9123 137.355L24.7221 136.768ZM18.4309 118.75V117.75H17.357L17.4335 118.821L18.4309 118.75ZM34.0673 118.75L35.0636 118.664L34.9848 117.75H34.0673V118.75ZM38.8315 130.477L38.0862 131.144L38.0956 131.154L38.8315 130.477ZM49.4593 137.318L49.127 138.261L49.1378 138.265L49.4593 137.318ZM78.9608 136.707L79.3378 137.634L79.3448 137.631L78.9608 136.707ZM89.894 128.767L90.6767 129.389L90.6803 129.385L89.894 128.767ZM90.4437 106.656L91.1905 105.991L91.1905 105.991L90.4437 106.656ZM81.2818 100.304L80.8867 101.223L80.8867 101.223L81.2818 100.304ZM69.0048 96.0284L68.7301 96.99L68.7372 96.9919L69.0048 96.0284ZM53.6128 91.6307L53.3364 92.5918L53.338 92.5922L53.6128 91.6307ZM30.4025 79.598L29.7278 80.336L29.7278 80.336L30.4025 79.598ZM27.5318 40.8125L26.7236 40.2236L26.7228 40.2247L27.5318 40.8125ZM42.9238 28.5966L43.3337 29.5087L43.3363 29.5075L42.9238 28.5966ZM86.1071 28.5355L85.6884 29.4437L85.6933 29.4459L86.1071 28.5355ZM101.01 40.2628L100.206 40.8564L100.209 40.8607L101.01 40.2628ZM106.874 57.1818V58.1818H107.907L107.874 57.1496L106.874 57.1818ZM93.2081 57.0642C92.4404 50.5814 89.3051 45.5135 83.8461 41.931L82.7488 43.6031C87.714 46.8615 90.5238 51.4035 91.222 57.2994L93.2081 57.0642ZM83.8461 41.931C78.4389 38.3825 71.845 36.6364 64.1184 36.6364V38.6364C71.5396 38.6364 77.7317 40.3107 82.7488 43.6031L83.8461 41.931ZM64.1184 36.6364C58.4741 36.6364 53.4886 37.5494 49.1854 39.4056L49.9776 41.2421C53.9812 39.515 58.687 38.6364 64.1184 38.6364V36.6364ZM49.1821 39.4071C44.9332 41.2581 41.5673 43.8233 39.1272 47.1195L40.7347 48.3095C42.9367 45.3349 46.0044 42.973 49.9809 41.2406L49.1821 39.4071ZM39.1222 47.1263C36.7137 50.4379 35.5105 54.2082 35.5105 58.4034H37.5105C37.5105 54.6176 38.5875 51.2619 40.7397 48.3027L39.1222 47.1263ZM35.5105 58.4034C35.5105 61.9065 36.3458 64.9762 38.0584 67.5671L39.7268 66.4642C38.2633 64.2501 37.5105 61.5784 37.5105 58.4034H35.5105ZM38.0694 67.5834C39.7782 70.0612 41.9554 72.1294 44.5902 73.7868L45.6551 72.0939C43.2407 70.5751 41.2645 68.6935 39.7158 66.4479L38.0694 67.5834ZM44.6001 73.7929C47.1807 75.3746 49.8869 76.6861 52.718 77.7269L53.4081 75.8498C50.7012 74.8546 48.1139 73.6008 45.6453 72.0877L44.6001 73.7929ZM52.7302 77.7313C55.5195 78.7158 58.091 79.5184 60.4435 80.1375L60.9525 78.2034C58.6629 77.6009 56.1445 76.8155 53.3959 75.8454L52.7302 77.7313ZM60.438 80.1361L73.1426 83.5565L73.6625 81.6253L60.9579 78.2048L60.438 80.1361ZM73.1486 83.5581C76.3651 84.4025 79.9554 85.5717 83.9215 87.0691L84.6279 85.198C80.613 83.6821 76.9551 82.4896 73.6564 81.6237L73.1486 83.5581ZM83.9246 87.0702C87.8708 88.5451 91.6421 90.5596 95.2392 93.1175L96.3982 91.4876C92.6658 88.8334 88.741 86.7352 84.6248 85.1968L83.9246 87.0702ZM95.2495 93.1247C98.8324 95.6052 101.789 98.7959 104.122 102.709L105.84 101.685C103.367 97.5365 100.216 94.1306 96.3879 91.4804L95.2495 93.1247ZM104.122 102.709C106.411 106.552 107.584 111.312 107.584 117.04H109.584C109.584 111.04 108.355 105.906 105.84 101.685L104.122 102.709ZM107.584 117.04C107.584 123.614 105.865 129.531 102.432 134.819L104.109 135.908C107.761 130.283 109.584 123.985 109.584 117.04H107.584ZM102.429 134.824C99.0425 140.1 94.0662 144.321 87.4487 147.471L88.3081 149.277C95.2095 145.992 100.495 141.54 104.112 135.904L102.429 134.824ZM87.4465 147.472C80.8958 150.608 72.8877 152.199 63.3855 152.199V154.199C73.103 154.199 81.4235 152.573 88.3102 149.276L87.4465 147.472ZM63.3855 152.199C54.5324 152.199 46.9188 150.77 40.5177 147.947L39.7107 149.777C46.4213 152.737 54.3219 154.199 63.3855 154.199V152.199ZM40.5198 147.948C34.1467 145.12 29.163 141.194 25.532 136.182L23.9123 137.355C27.7737 142.685 33.0513 146.822 39.7086 149.776L40.5198 147.948ZM25.535 136.186C21.9454 131.176 19.9049 125.35 19.4284 118.679L17.4335 118.821C17.9342 125.831 20.0878 132.018 23.9093 137.351L25.535 136.186ZM18.4309 119.75H34.0673V117.75H18.4309V119.75ZM33.071 118.836C33.494 123.743 35.153 127.866 38.0863 131.144L39.5767 129.81C36.9722 126.899 35.455 123.204 35.0636 118.664L33.071 118.836ZM38.0956 131.154C41.026 134.34 44.7117 136.705 49.127 138.261L49.7917 136.375C45.6558 134.918 42.2563 132.723 39.5674 129.8L38.0956 131.154ZM49.1378 138.265C53.5665 139.769 58.3181 140.517 63.3855 140.517V138.517C58.5173 138.517 53.9848 137.799 49.7809 136.371L49.1378 138.265ZM63.3855 140.517C69.276 140.517 74.5988 139.563 79.3378 137.634L78.5837 135.781C74.1201 137.598 69.0593 138.517 63.3855 138.517V140.517ZM79.3448 137.631C84.078 135.662 87.8687 132.921 90.6767 129.389L89.1113 128.145C86.5443 131.373 83.0461 133.925 78.5767 135.784L79.3448 137.631ZM90.6803 129.385C93.5133 125.779 94.9253 121.568 94.9253 116.795H92.9253C92.9253 121.144 91.6497 124.914 89.1077 128.149L90.6803 129.385ZM94.9253 116.795C94.9253 112.446 93.7046 108.814 91.1905 105.991L89.697 107.321C91.8249 109.711 92.9253 112.838 92.9253 116.795H94.9253ZM91.1905 105.991C88.7561 103.258 85.5741 101.062 81.6769 99.3853L80.8867 101.223C84.5634 102.804 87.4893 104.843 89.697 107.321L91.1905 105.991ZM81.6769 99.3853C77.8444 97.737 73.7091 96.2973 69.2724 95.0649L68.7372 96.9919C73.096 98.2027 77.1453 99.6134 80.8867 101.223L81.6769 99.3853ZM69.2795 95.0669L53.8875 90.6692L53.338 92.5922L68.7301 96.9899L69.2795 95.0669ZM53.8891 90.6696C44.2196 87.8896 36.6341 83.9404 31.0773 78.86L29.7278 80.336C35.5725 85.6798 43.4605 89.7524 53.3364 92.5917L53.8891 90.6696ZM31.0773 78.86C25.604 73.8558 22.8514 67.3132 22.8514 59.1364H20.8514C20.8514 67.8175 23.7996 74.916 29.7278 80.336L31.0773 78.86ZM22.8514 59.1364C22.8514 52.3243 24.6889 46.4265 28.3408 41.4003L26.7228 40.2247C22.8008 45.6227 20.8514 51.9408 20.8514 59.1364H22.8514ZM28.34 41.4014C32.0566 36.301 37.0447 32.3348 43.3337 29.5087L42.5139 27.6844C35.9355 30.6406 30.6623 34.8184 26.7236 40.2236L28.34 41.4014ZM43.3363 29.5075C49.6661 26.6412 56.7507 25.1989 64.6071 25.1989V23.1989C56.5013 23.1989 49.1304 24.6883 42.5113 27.6856L43.3363 29.5075ZM64.6071 25.1989C72.5491 25.1989 79.569 26.6224 85.6884 29.4436L86.5258 27.6274C80.1034 24.6664 72.7901 23.1989 64.6071 23.1989V25.1989ZM85.6933 29.4459C91.8273 32.234 96.6535 36.0411 100.206 40.8564L101.815 39.6691C98.0379 34.5488 92.9285 30.5377 86.5209 27.6251L85.6933 29.4459ZM100.209 40.8607C103.79 45.6613 105.677 51.1027 105.875 57.2141L107.874 57.1496C107.664 50.6378 105.642 44.7999 101.812 39.6649L100.209 40.8607ZM106.874 56.1818H92.215V58.1818H106.874V56.1818Z" fill="black"/>
</g>
<g filter="url(#filter1_f_0_1)">
<path d="M134.138 187.909H152.218L194.729 291.744H196.195L238.706 187.909H256.786V313H242.615V217.96H241.394L202.303 313H188.621L149.53 217.96H148.308V313H134.138V187.909Z" fill="#558ABA"/>
<path d="M134.138 187.909V186.909H133.138V187.909H134.138ZM152.218 187.909L153.143 187.53L152.889 186.909H152.218V187.909ZM194.729 291.744L193.803 292.123L194.058 292.744H194.729V291.744ZM196.195 291.744V292.744H196.866L197.12 292.123L196.195 291.744ZM238.706 187.909V186.909H238.035L237.781 187.53L238.706 187.909ZM256.786 187.909H257.786V186.909H256.786V187.909ZM256.786 313V314H257.786V313H256.786ZM242.615 313H241.615V314H242.615V313ZM242.615 217.96H243.615V216.96H242.615V217.96ZM241.394 217.96V216.96H240.724L240.469 217.58L241.394 217.96ZM202.303 313V314H202.973L203.228 313.38L202.303 313ZM188.621 313L187.696 313.38L187.951 314H188.621V313ZM149.53 217.96L150.455 217.58L150.2 216.96H149.53V217.96ZM148.308 217.96V216.96H147.308V217.96H148.308ZM148.308 313V314H149.308V313H148.308ZM134.138 313H133.138V314H134.138V313ZM134.138 188.909H152.218V186.909H134.138V188.909ZM151.292 188.288L193.803 292.123L195.654 291.365L153.143 187.53L151.292 188.288ZM194.729 292.744H196.195V290.744H194.729V292.744ZM197.12 292.123L239.632 188.288L237.781 187.53L195.269 291.365L197.12 292.123ZM238.706 188.909H256.786V186.909H238.706V188.909ZM255.786 187.909V313H257.786V187.909H255.786ZM256.786 312H242.615V314H256.786V312ZM243.615 313V217.96H241.615V313H243.615ZM242.615 216.96H241.394V218.96H242.615V216.96ZM240.469 217.58L201.378 312.62L203.228 313.38L242.318 218.341L240.469 217.58ZM202.303 312H188.621V314H202.303V312ZM189.546 312.62L150.455 217.58L148.605 218.341L187.696 313.38L189.546 312.62ZM149.53 216.96H148.308V218.96H149.53V216.96ZM147.308 217.96V313H149.308V217.96H147.308ZM148.308 312H134.138V314H148.308V312ZM135.138 313V187.909H133.138V313H135.138Z" fill="black"/>
</g>
<path d="M67.8762 205.455V220H66.1149V205.455H67.8762ZM59.8649 231.455H61.9672L66.9103 243.528H67.0808L72.024 231.455H74.1262V246H72.4785V234.949H72.3365L67.791 246H66.2001L61.6547 234.949H61.5126V246H59.8649V231.455ZM62.4137 272V257.455H67.3285C68.4696 257.455 69.4023 257.661 70.1268 258.072C70.8559 258.48 71.3957 259.031 71.7461 259.727C72.0965 260.423 72.2717 261.2 72.2717 262.057C72.2717 262.914 72.0965 263.693 71.7461 264.393C71.4005 265.094 70.8654 265.653 70.141 266.07C69.4165 266.482 68.4885 266.688 67.3569 266.688H63.8342V265.125H67.3001C68.0813 265.125 68.7087 264.99 69.1822 264.72C69.6557 264.45 69.9989 264.086 70.212 263.626C70.4298 263.162 70.5387 262.639 70.5387 262.057C70.5387 261.474 70.4298 260.954 70.212 260.494C69.9989 260.035 69.6533 259.675 69.1751 259.415C68.6969 259.15 68.0624 259.017 67.2717 259.017H64.1751V272H62.4137ZM63.1364 298V283.455H64.8977V296.438H71.6591V298H63.1364ZM62.7848 324V309.455H71.5632V311.017H64.5462V315.932H71.1087V317.494H64.5462V322.438H71.6768V324H62.7848ZM60.861 335.455H62.878L66.9121 342.244H67.0826L71.1167 335.455H73.1337L67.878 344.006V350H66.1167V344.006L60.861 335.455Z" fill="#558ABA"/>
<path d="M193.875 59H188.489V41.5455H194.114C195.807 41.5455 197.256 41.8949 198.46 42.5938C199.665 43.2869 200.588 44.2841 201.23 45.5852C201.872 46.8807 202.193 48.4318 202.193 50.2386C202.193 52.0568 201.869 53.6222 201.222 54.9347C200.574 56.2415 199.631 57.2472 198.392 57.9517C197.153 58.6506 195.648 59 193.875 59ZM190.602 57.125H193.739C195.182 57.125 196.378 56.8466 197.327 56.2898C198.276 55.733 198.983 54.9403 199.449 53.9119C199.915 52.8835 200.148 51.6591 200.148 50.2386C200.148 48.8295 199.918 47.6165 199.457 46.5994C198.997 45.5767 198.31 44.7926 197.395 44.2472C196.48 43.696 195.341 43.4205 193.977 43.4205H190.602V57.125ZM189.438 94V76.5455H195.336C196.699 76.5455 197.819 76.7784 198.694 77.2443C199.569 77.7045 200.216 78.3381 200.637 79.1449C201.057 79.9517 201.267 80.8693 201.267 81.8977C201.267 82.9261 201.057 83.8381 200.637 84.6335C200.216 85.429 199.571 86.054 198.702 86.5085C197.833 86.9574 196.722 87.1818 195.37 87.1818H190.597V85.2727H195.301C196.233 85.2727 196.983 85.1364 197.551 84.8636C198.125 84.5909 198.54 84.2045 198.796 83.7045C199.057 83.1989 199.188 82.5966 199.188 81.8977C199.188 81.1989 199.057 80.5881 198.796 80.0653C198.534 79.5426 198.117 79.1392 197.543 78.8551C196.969 78.5653 196.211 78.4205 195.267 78.4205H191.551V94H189.438ZM197.654 86.1591L201.949 94H199.495L195.267 86.1591H197.654ZM189.942 129V111.545H200.476V113.42H192.055V119.318H199.93V121.193H192.055V127.125H200.612V129H189.942ZM189.72 164H187.504L193.913 146.545H196.095L202.504 164H200.288L195.072 149.307H194.936L189.72 164ZM190.538 157.182H199.47V159.057H190.538V157.182Z" fill="#305170"/>
<defs>
<filter id="filter0_f_0_1" x="14.4309" y="20.1989" width="98.1534" height="137" filterUnits="userSpaceOnUse" color-interpolation-filters="sRGB">
<feFlood flood-opacity="0" result="BackgroundImageFix"/>
<feBlend mode="normal" in="SourceGraphic" in2="BackgroundImageFix" result="shape"/>
<feGaussianBlur stdDeviation="2" result="effect1_foregroundBlur_0_1"/>
</filter>
<filter id="filter1_f_0_1" x="130.138" y="183.909" width="130.648" height="133.091" filterUnits="userSpaceOnUse" color-interpolation-filters="sRGB">
<feFlood flood-opacity="0" result="BackgroundImageFix"/>
<feBlend mode="normal" in="SourceGraphic" in2="BackgroundImageFix" result="shape"/>
<feGaussianBlur stdDeviation="2" result="effect1_foregroundBlur_0_1"/>
</filter>
</defs>
</svg>
